<svg xmlns="http://www.w3.org/2000/svg" xmlns:xlink="http://www.w3.org/1999/xlink" viewBox="0 0 125.62 125.62"><defs><style>.cls-1{isolation:isolate;}.cls-2{fill:url(#linear-gradient);}.cls-3{fill:url(#linear-gradient-2);}.cls-4{mix-blend-mode:multiply;fill:url(#linear-gradient-3);}.cls-5{fill:url(#linear-gradient-4);}.cls-6{fill:url(#linear-gradient-5);}.cls-7{fill:url(#linear-gradient-6);}.cls-8{fill:url(#linear-gradient-7);}.cls-9{opacity:0.5;fill:url(#linear-gradient-8);}</style><linearGradient id="linear-gradient" x1="14.66" y1="14.66" x2="114.68" y2="114.68" gradientUnits="userSpaceOnUse"><stop offset="0" stop-color="#006af1"/><stop offset="1" stop-color="#40ffff"/></linearGradient><linearGradient id="linear-gradient-2" x1="117.96" y1="117.96" x2="11.65" y2="11.65" xlink:href="#linear-gradient"/><linearGradient id="linear-gradient-3" x1="113.91" y1="113.91" x2="15.41" y2="15.41" xlink:href="#linear-gradient"/><linearGradient id="linear-gradient-4" x1="18.74" y1="18.74" x2="114.82" y2="114.82" gradientUnits="userSpaceOnUse"><stop offset="0" stop-color="#fff"/><stop offset="1" stop-color="#e9e9e9"/></linearGradient><linearGradient id="linear-gradient-5" x1="97.92" y1="107.31" x2="17.27" y2="26.67" xlink:href="#linear-gradient"/><linearGradient id="linear-gradient-6" x1="64.27" y1="32" x2="64.27" y2="46.44" gradientUnits="userSpaceOnUse"><stop offset="0" stop-color="#006af1"/><stop offset="1" stop-color="#006af1" stop-opacity="0"/></linearGradient><linearGradient id="linear-gradient-7" x1="105.01" y1="100.22" x2="24.37" y2="19.58" xlink:href="#linear-gradient"/><linearGradient id="linear-gradient-8" x1="44.19" y1="50.16" x2="44.19" y2="39.27" xlink:href="#linear-gradient-6"/></defs><g class="cls-1"><g id="Layer_2" data-name="Layer 2"><g id="OBJECTS"><rect class="cls-2" width="125.62" height="125.62" rx="20.37"/><rect class="cls-3" x="1.81" y="1.81" width="121.99" height="121.99" rx="18.62"/><rect class="cls-4" x="6.7" y="6.7" width="112.21" height="112.21" rx="15.87"/><rect class="cls-5" x="8.05" y="8.05" width="109.51" height="109.51" rx="15.03"/><path class="cls-6" d="M86.92,91.46H35.59a17,17,0,0,1-3-33.83,10.63,10.63,0,0,1,11.7-8.79,21.6,21.6,0,0,1,7.25-9.56,21.41,21.41,0,0,1,24.14-.93A21.5,21.5,0,0,1,85,51.21q.94-.09,1.89-.09a20.17,20.17,0,0,1,0,40.34ZM36.44,59.31v.1a2,2,0,0,1-1.85,2,13,13,0,0,0,1,26.05H86.92a16.17,16.17,0,0,0,0-32.34,16.41,16.41,0,0,0-3.09.3,2,2,0,0,1-1.53-.32,2,2,0,0,1-.83-1.33,17.39,17.39,0,0,0-17.19-14.7,17.22,17.22,0,0,0-10.36,3.42,17.49,17.49,0,0,0-6.39,9.22,2,2,0,0,1-1,1.22,2,2,0,0,1-1.55.14,6.59,6.59,0,0,0-8.56,6.24Z"/><path class="cls-7" d="M75.67,38.35a21.39,21.39,0,0,0-30.85,9.22h4.51a17.39,17.39,0,0,1,29.9,0h4.5A21.34,21.34,0,0,0,75.67,38.35Z"/><path class="cls-8" d="M79.73,58.78l-16.39,25a1.12,1.12,0,0,1-1.87,0l-16.39-25A1.12,1.12,0,0,1,46,57.05l7.57,0a2,2,0,0,0,2-2V51.69s1.14-11.86-4.78-13.55l-.09,0a2.59,2.59,0,0,0-.4-.09,2.83,2.83,0,0,0-.42-.06h-.11l-.45,0a7.75,7.75,0,0,0-.93.06c-4,.53-6,5.94-6.38,10.81a10.37,10.37,0,0,0-4.41,1.45c0-.38,0-.76,0-1.13s0-.57,0-.86,0-.53.05-.8,0-.67.08-1,.07-.64.12-.95.05-.42.09-.63.09-.62.15-.93l.18-.89c.18-.83.39-1.62.63-2.38.11-.34.22-.67.34-1s.23-.61.36-.91a20.76,20.76,0,0,1,.89-1.9c.15-.27.3-.53.46-.79l.48-.77,0,0c.17-.26.35-.51.53-.75s.29-.39.45-.58.24-.29.37-.43a.53.53,0,0,1,.12-.14c.12-.14.25-.28.38-.41a14.51,14.51,0,0,1,3.26-2.6l.49-.28.56-.29.49-.22.58-.25a14.58,14.58,0,0,1,6.2-.94c9.38.57,14.29,6.92,14.29,22.71V55a2,2,0,0,0,2,2l7.57,0A1.12,1.12,0,0,1,79.73,58.78Z"/><path class="cls-9" d="M50.79,28.74v9.4l-.09,0a2.59,2.59,0,0,0-.4-.09,2.83,2.83,0,0,0-.42-.06h-.11l-.45,0a7.75,7.75,0,0,0-.93.06c-4,.53-6,5.94-6.38,10.81a10.37,10.37,0,0,0-4.41,1.45c0-.38,0-.76,0-1.13s0-.57,0-.86,0-.53.05-.8,0-.67.08-1,.07-.64.12-.95.05-.42.09-.63.09-.62.15-.93l.18-.89c.18-.83.39-1.62.63-2.38.11-.34.22-.67.34-1s.23-.61.36-.91a20.76,20.76,0,0,1,.89-1.9c.15-.27.3-.53.46-.79l.48-.77,0,0c.17-.26.35-.51.53-.75s.29-.39.45-.58.24-.29.37-.43a.53.53,0,0,1,.12-.14c.12-.14.25-.28.38-.41a14.51,14.51,0,0,1,3.26-2.6l.49-.28.56-.29.49-.22.58-.25A14.66,14.66,0,0,1,50.79,28.74Z"/></g></g></g></svg>